<svg width="40" height="40" viewBox="0 0 40 40" fill="none" xmlns="http://www.w3.org/2000/svg">
<rect width="40" height="40" rx="10" fill="#319DFF"/>
<g clip-path="url(#clip0_1988_5517)">
<path d="M21.1999 15.2001H18.7999V20.0001H21.1999V15.2001Z" fill="white"/>
<path d="M17.5999 23.9999C17.1587 23.9999 16.7998 24.3587 16.7998 24.8C16.7998 25.2411 17.1586 25.6 17.5999 25.6C18.041 25.6 18.3999 25.2412 18.3999 24.8C18.3998 24.3588 18.041 23.9999 17.5999 23.9999Z" fill="white"/>
<path d="M14.3998 19.6C13.9587 19.6 13.5998 19.9588 13.5998 20.4C13.5998 20.8412 13.9586 21.2 14.3998 21.2C14.841 21.2 15.1999 20.8412 15.1999 20.4C15.1999 19.9588 14.841 19.6 14.3998 19.6Z" fill="white"/>
<path d="M15.5999 16.8C16.041 16.8 16.3999 16.4412 16.3999 15.9999C16.3999 15.5587 16.0411 15.1999 15.5999 15.1999C15.1587 15.1999 14.7998 15.5587 14.7998 15.9999C14.7998 16.4412 15.1587 16.8 15.5999 16.8Z" fill="white"/>
<path d="M22.3999 23.9999C21.9587 23.9999 21.5999 24.3587 21.5999 24.8C21.5999 25.2411 21.9586 25.6 22.3999 25.6C22.8411 25.6 23.1999 25.2412 23.1999 24.8C23.1998 24.3588 22.8411 23.9999 22.3999 23.9999Z" fill="white"/>
<path d="M24.3998 16.8C24.841 16.8 25.1998 16.4412 25.1998 15.9999C25.1998 15.5587 24.841 15.1999 24.3998 15.1999C23.9586 15.1999 23.5998 15.5587 23.5998 15.9999C23.5998 16.4412 23.9586 16.8 24.3998 16.8Z" fill="white"/>
<path d="M25.5998 19.6C25.1586 19.6 24.7998 19.9588 24.7998 20.4C24.7998 20.8412 25.1586 21.2 25.5998 21.2C26.041 21.2 26.3998 20.8412 26.3998 20.4C26.3998 19.9588 26.0411 19.6 25.5998 19.6Z" fill="white"/>
<path d="M20 8C13.3832 8 8 13.3832 8 20C8 26.6168 13.3832 32 20 32C26.6168 32 32 26.6168 32 20C32 13.3832 26.6168 8 20 8ZM28.1936 24.182C28.1252 24.316 27.9872 24.4 27.8372 24.4H26V26.7884C26 26.9072 25.9468 27.0208 25.8544 27.0968C24.2124 28.4532 22.1332 29.2 20 29.2C17.8668 29.2 15.7872 28.4532 14.1452 27.0968C14.0528 27.0208 14 26.9072 14 26.7884V24.4H12.1624C12.0124 24.4 11.8744 24.316 11.806 24.182C11.1384 22.8764 10.8 21.4696 10.8 20C10.8 15.6988 13.7232 12.0148 17.9092 11.0416C18.0292 11.0144 18.1532 11.0424 18.2488 11.118C18.344 11.1936 18.4 11.3092 18.4 11.4312V12.8H21.6V11.4312C21.6 11.3092 21.6556 11.1936 21.7512 11.118C21.8465 11.0424 21.9709 11.014 22.0904 11.0416C26.2764 12.0148 29.2 15.6988 29.2 20C29.2 21.4696 28.8612 22.8764 28.1936 24.182Z" fill="white"/>
<path d="M22.3996 11.9503V13.1999C22.3996 13.4211 22.2208 13.5999 21.9996 13.5999H17.9996C17.7784 13.5999 17.5996 13.4211 17.5996 13.1999V11.9503C14.042 13.0024 11.5996 16.2432 11.5996 20C11.5996 21.2604 11.8724 22.4704 12.4104 23.6H14.3996C14.6208 23.6 14.7996 23.7787 14.7996 23.9999V26.5971C16.2748 27.7607 18.114 28.4 19.9996 28.4C21.8852 28.4 23.7243 27.7608 25.1995 26.5971V23.9999C25.1995 23.7787 25.3783 23.6 25.5995 23.6H27.5888C28.1268 22.4704 28.3996 21.2604 28.3996 20C28.3996 16.2432 25.9572 13.0024 22.3996 11.9503ZM24.3996 14.3999C25.282 14.3999 25.9996 15.1176 25.9996 15.9999C25.9996 16.8823 25.282 17.5999 24.3996 17.5999C23.5172 17.5999 22.7996 16.8823 22.7996 15.9999C22.7996 15.1176 23.5172 14.3999 24.3996 14.3999ZM15.5996 14.3999C16.482 14.3999 17.1996 15.1176 17.1996 15.9999C17.1996 16.8823 16.482 17.5999 15.5996 17.5999C14.7172 17.5999 13.9996 16.8823 13.9996 15.9999C13.9996 15.1176 14.7172 14.3999 15.5996 14.3999ZM14.3996 22C13.5172 22 12.7996 21.2824 12.7996 20.4C12.7996 19.5176 13.5172 18.8 14.3996 18.8C15.282 18.8 15.9996 19.5176 15.9996 20.4C15.9996 21.2824 15.282 22 14.3996 22ZM17.5996 26.4C16.7172 26.4 15.9996 25.6824 15.9996 24.8C15.9996 23.9176 16.7172 23.2 17.5996 23.2C18.482 23.2 19.1996 23.9176 19.1996 24.8C19.1996 25.6824 18.482 26.4 17.5996 26.4ZM18.3996 20.8C18.1784 20.8 17.9996 20.6212 17.9996 20.4V14.8C17.9996 14.5788 18.1784 14.4 18.3996 14.4H21.5996C21.8208 14.4 21.9996 14.5788 21.9996 14.8V20.4C21.9996 20.6212 21.8208 20.8 21.5996 20.8H18.3996ZM22.3996 26.4C21.5172 26.4 20.7996 25.6824 20.7996 24.8C20.7996 23.9176 21.5172 23.2 22.3996 23.2C23.282 23.2 23.9996 23.9176 23.9996 24.8C23.9996 25.6824 23.282 26.4 22.3996 26.4ZM25.5996 22C24.7172 22 23.9996 21.2824 23.9996 20.4C23.9996 19.5176 24.7172 18.8 25.5996 18.8C26.482 18.8 27.1996 19.5176 27.1996 20.4C27.1996 21.2824 26.482 22 25.5996 22Z" fill="white"/>
</g>
<defs>
<clipPath id="clip0_1988_5517">
<rect width="24" height="24" fill="white" transform="translate(8 8)"/>
</clipPath>
</defs>
</svg>
